<svg xmlns="http://www.w3.org/2000/svg" viewBox="0 0 32 32">
  <rect width="32" height="32" rx="6" fill="#001B66"/>
  <g fill="#E3E5F3">
    <circle cx="16" cy="16" r="4"/>
    <rect x="14.75" y="4" width="2.5" height="5.5" rx="1.25" transform="rotate(0 16 16)"/>
    <rect x="14.75" y="4" width="2.5" height="5.5" rx="1.25" transform="rotate(45 16 16)"/>
    <rect x="14.75" y="4" width="2.5" height="5.5" rx="1.25" transform="rotate(90 16 16)"/>
    <rect x="14.75" y="4" width="2.5" height="5.5" rx="1.25" transform="rotate(135 16 16)"/>
    <rect x="14.75" y="4" width="2.5" height="5.5" rx="1.25" transform="rotate(180 16 16)"/>
    <rect x="14.75" y="4" width="2.5" height="5.5" rx="1.25" transform="rotate(225 16 16)"/>
    <rect x="14.75" y="4" width="2.5" height="5.5" rx="1.25" transform="rotate(270 16 16)"/>
    <rect x="14.75" y="4" width="2.5" height="5.5" rx="1.25" transform="rotate(315 16 16)"/>
  </g>
</svg>
